<?xml version="1.0" encoding="UTF-8" standalone="no"?>
<!DOCTYPE svg PUBLIC "-//W3C//DTD SVG 1.1//EN"
 "http://www.w3.org/Graphics/SVG/1.1/DTD/svg11.dtd">
<!-- Generated by graphviz version 13.0.1 (20250615.1724)
 -->
<!-- Title: model Pages: 1 -->
<svg width="1253pt" height="409pt"
 viewBox="0.00 0.00 1253.00 409.00" xmlns="http://www.w3.org/2000/svg" xmlns:xlink="http://www.w3.org/1999/xlink">
<g id="graph0" class="graph" transform="scale(0.920985 0.920985) rotate(0) translate(4 440.12)">
<title>model</title>
<polygon fill="white" stroke="none" points="-4,4 -4,-440.12 1356.5,-440.12 1356.5,4 -4,4"/>
<!-- 0 -->
<g id="node1" class="node">
<title>0</title>
<polygon fill="lightyellow" stroke="black" points="134,-327.12 0,-327.12 0,-291.12 134,-291.12 134,-327.12"/>
<polygon fill="none" stroke="black" points="0,-291.38 0,-326.88 61.75,-326.88 61.75,-291.38 0,-291.38"/>
<text xml:space="preserve" text-anchor="start" x="5" y="-312.38" font-family="Linux libertine" font-size="10.00">input&#45;tensor</text>
<text xml:space="preserve" text-anchor="start" x="14.38" y="-299.62" font-family="Linux libertine" font-size="10.00">depth:0</text>
<polygon fill="none" stroke="black" points="61.75,-291.38 61.75,-326.88 134,-326.88 134,-291.38 61.75,-291.38"/>
<text xml:space="preserve" text-anchor="start" x="66.75" y="-306" font-family="Linux libertine" font-size="10.00">(1, 13, 16, 16)</text>
</g>
<!-- 7 -->
<g id="node5" class="node">
<title>7</title>
<polygon fill="#c1ffc1" stroke="black" points="315.25,-331.88 148,-331.88 148,-286.38 315.25,-286.38 315.25,-331.88"/>
<polygon fill="none" stroke="black" points="148,-286.38 148,-331.88 191,-331.88 191,-286.38 148,-286.38"/>
<text xml:space="preserve" text-anchor="start" x="153.38" y="-312.38" font-family="Linux libertine" font-size="10.00">Conv2d</text>
<text xml:space="preserve" text-anchor="start" x="153" y="-299.62" font-family="Linux libertine" font-size="10.00">depth:1</text>
<polygon fill="none" stroke="black" points="191,-309.12 191,-331.88 234.75,-331.88 234.75,-309.12 191,-309.12"/>
<text xml:space="preserve" text-anchor="start" x="200.5" y="-317.38" font-family="Linux libertine" font-size="10.00">input:</text>
<polygon fill="none" stroke="black" points="234.75,-309.12 234.75,-331.88 315.25,-331.88 315.25,-309.12 234.75,-309.12"/>
<text xml:space="preserve" text-anchor="start" x="242.38" y="-317.38" font-family="Linux libertine" font-size="10.00">(1, 13, 16, 16) </text>
<polygon fill="none" stroke="black" points="191,-286.38 191,-309.12 234.75,-309.12 234.75,-286.38 191,-286.38"/>
<text xml:space="preserve" text-anchor="start" x="196" y="-294.62" font-family="Linux libertine" font-size="10.00">output: </text>
<polygon fill="none" stroke="black" points="234.75,-286.38 234.75,-309.12 315.25,-309.12 315.25,-286.38 234.75,-286.38"/>
<text xml:space="preserve" text-anchor="start" x="239.75" y="-294.62" font-family="Linux libertine" font-size="10.00">(1, 128, 16, 16) </text>
</g>
<!-- 0&#45;&gt;7 -->
<g id="edge1" class="edge">
<title>0&#45;&gt;7</title>
<path fill="none" stroke="black" d="M134.15,-309.12C134.85,-309.12 135.55,-309.12 136.25,-309.12"/>
<polygon fill="black" stroke="black" points="136.22,-312.63 146.22,-309.13 136.22,-305.63 136.22,-312.63"/>
</g>
<!-- 1 -->
<g id="node2" class="node">
<title>1</title>
<polygon fill="lightyellow" stroke="black" points="484.12,-388.12 376.12,-388.12 376.12,-352.12 484.12,-352.12 484.12,-388.12"/>
<polygon fill="none" stroke="black" points="386.38,-352.38 386.38,-387.88 448.12,-387.88 448.12,-352.38 386.38,-352.38"/>
<text xml:space="preserve" text-anchor="start" x="391.38" y="-373.38" font-family="Linux libertine" font-size="10.00">input&#45;tensor</text>
<text xml:space="preserve" text-anchor="start" x="400.75" y="-360.62" font-family="Linux libertine" font-size="10.00">depth:0</text>
<polygon fill="none" stroke="black" points="448.12,-352.38 448.12,-387.88 473.88,-387.88 473.88,-352.38 448.12,-352.38"/>
<text xml:space="preserve" text-anchor="start" x="453.12" y="-367" font-family="Linux libertine" font-size="10.00">(1,)</text>
</g>
<!-- 6 -->
<g id="node4" class="node">
<title>6</title>
<polygon fill="#c1ffc1" stroke="black" points="738.12,-392.88 549.88,-392.88 549.88,-347.38 738.12,-347.38 738.12,-392.88"/>
<polygon fill="none" stroke="black" points="549.88,-347.38 549.88,-392.88 646.88,-392.88 646.88,-347.38 549.88,-347.38"/>
<text xml:space="preserve" text-anchor="start" x="554.88" y="-373.38" font-family="Linux libertine" font-size="10.00">TimestepEmbedding</text>
<text xml:space="preserve" text-anchor="start" x="581.88" y="-360.62" font-family="Linux libertine" font-size="10.00">depth:1</text>
<polygon fill="none" stroke="black" points="646.88,-370.12 646.88,-392.88 690.62,-392.88 690.62,-370.12 646.88,-370.12"/>
<text xml:space="preserve" text-anchor="start" x="656.38" y="-378.38" font-family="Linux libertine" font-size="10.00">input:</text>
<polygon fill="none" stroke="black" points="690.62,-370.12 690.62,-392.88 738.12,-392.88 738.12,-370.12 690.62,-370.12"/>
<text xml:space="preserve" text-anchor="start" x="695.62" y="-378.38" font-family="Linux libertine" font-size="10.00">(1, 128) </text>
<polygon fill="none" stroke="black" points="646.88,-347.38 646.88,-370.12 690.62,-370.12 690.62,-347.38 646.88,-347.38"/>
<text xml:space="preserve" text-anchor="start" x="651.88" y="-355.62" font-family="Linux libertine" font-size="10.00">output: </text>
<polygon fill="none" stroke="black" points="690.62,-347.38 690.62,-370.12 738.12,-370.12 738.12,-347.38 690.62,-347.38"/>
<text xml:space="preserve" text-anchor="start" x="695.62" y="-355.62" font-family="Linux libertine" font-size="10.00">(1, 512) </text>
</g>
<!-- 1&#45;&gt;6 -->
<g id="edge2" class="edge">
<title>1&#45;&gt;6</title>
<path fill="none" stroke="black" d="M484.59,-370.12C501.01,-370.12 519.68,-370.12 538.31,-370.12"/>
<polygon fill="black" stroke="black" points="538.04,-373.63 548.04,-370.13 538.04,-366.63 538.04,-373.63"/>
</g>
<!-- 2 -->
<g id="node3" class="node">
<title>2</title>
<polygon fill="lightyellow" stroke="black" points="702.75,-436.12 585.25,-436.12 585.25,-400.12 702.75,-400.12 702.75,-436.12"/>
<polygon fill="none" stroke="black" points="585.25,-400.38 585.25,-435.88 647,-435.88 647,-400.38 585.25,-400.38"/>
<text xml:space="preserve" text-anchor="start" x="590.25" y="-421.38" font-family="Linux libertine" font-size="10.00">input&#45;tensor</text>
<text xml:space="preserve" text-anchor="start" x="599.62" y="-408.62" font-family="Linux libertine" font-size="10.00">depth:0</text>
<polygon fill="none" stroke="black" points="647,-400.38 647,-435.88 702.75,-435.88 702.75,-400.38 647,-400.38"/>
<text xml:space="preserve" text-anchor="start" x="652" y="-415" font-family="Linux libertine" font-size="10.00">(1, 1, 128)</text>
</g>
<!-- 8 -->
<g id="node6" class="node">
<title>8</title>
<polygon fill="#c1ffc1" stroke="black" points="531,-344.62 329.25,-344.62 329.25,-273.62 531,-273.62 531,-344.62"/>
<polygon fill="none" stroke="black" points="329.25,-273.62 329.25,-344.62 388,-344.62 388,-273.62 329.25,-273.62"/>
<text xml:space="preserve" text-anchor="start" x="334.25" y="-312.38" font-family="Linux libertine" font-size="10.00">Downsizing</text>
<text xml:space="preserve" text-anchor="start" x="342.12" y="-299.62" font-family="Linux libertine" font-size="10.00">depth:1</text>
<polygon fill="none" stroke="black" points="388,-309.12 388,-344.62 431.75,-344.62 431.75,-309.12 388,-309.12"/>
<text xml:space="preserve" text-anchor="start" x="397.5" y="-323.75" font-family="Linux libertine" font-size="10.00">input:</text>
<polygon fill="none" stroke="black" points="431.75,-309.12 431.75,-344.62 531,-344.62 531,-309.12 431.75,-309.12"/>
<text xml:space="preserve" text-anchor="start" x="446.12" y="-330.12" font-family="Linux libertine" font-size="10.00">(1, 128, 16, 16),</text>
<text xml:space="preserve" text-anchor="start" x="436.75" y="-317.38" font-family="Linux libertine" font-size="10.00">(1, 512), (1, 1, 128) </text>
<polygon fill="none" stroke="black" points="388,-273.62 388,-309.12 431.75,-309.12 431.75,-273.62 388,-273.62"/>
<text xml:space="preserve" text-anchor="start" x="393" y="-288.25" font-family="Linux libertine" font-size="10.00">output: </text>
<polygon fill="none" stroke="black" points="431.75,-273.62 431.75,-309.12 531,-309.12 531,-273.62 431.75,-273.62"/>
<text xml:space="preserve" text-anchor="start" x="443.12" y="-294.62" font-family="Linux libertine" font-size="10.00">2 x (1, 128, 8, 8),</text>
<text xml:space="preserve" text-anchor="start" x="437.88" y="-281.88" font-family="Linux libertine" font-size="10.00">2 x (1, 128, 16, 16) </text>
</g>
<!-- 7&#45;&gt;8 -->
<g id="edge3" class="edge">
<title>7&#45;&gt;8</title>
<path fill="none" stroke="black" d="M315.67,-309.12C316.36,-309.12 317.05,-309.12 317.74,-309.12"/>
<polygon fill="black" stroke="black" points="317.45,-312.63 327.45,-309.13 317.45,-305.63 317.45,-312.63"/>
</g>
<!-- 9 -->
<g id="node7" class="node">
<title>9</title>
<polygon fill="#c1ffc1" stroke="black" points="531,-266.62 329.25,-266.62 329.25,-195.62 531,-195.62 531,-266.62"/>
<polygon fill="none" stroke="black" points="329.25,-195.62 329.25,-266.62 388,-266.62 388,-195.62 329.25,-195.62"/>
<text xml:space="preserve" text-anchor="start" x="334.25" y="-234.38" font-family="Linux libertine" font-size="10.00">Downsizing</text>
<text xml:space="preserve" text-anchor="start" x="342.12" y="-221.62" font-family="Linux libertine" font-size="10.00">depth:1</text>
<polygon fill="none" stroke="black" points="388,-231.12 388,-266.62 431.75,-266.62 431.75,-231.12 388,-231.12"/>
<text xml:space="preserve" text-anchor="start" x="397.5" y="-245.75" font-family="Linux libertine" font-size="10.00">input:</text>
<polygon fill="none" stroke="black" points="431.75,-231.12 431.75,-266.62 531,-266.62 531,-231.12 431.75,-231.12"/>
<text xml:space="preserve" text-anchor="start" x="451.38" y="-252.12" font-family="Linux libertine" font-size="10.00">(1, 128, 8, 8),</text>
<text xml:space="preserve" text-anchor="start" x="436.75" y="-239.38" font-family="Linux libertine" font-size="10.00">(1, 512), (1, 1, 128) </text>
<polygon fill="none" stroke="black" points="388,-195.62 388,-231.12 431.75,-231.12 431.75,-195.62 388,-195.62"/>
<text xml:space="preserve" text-anchor="start" x="393" y="-210.25" font-family="Linux libertine" font-size="10.00">output: </text>
<polygon fill="none" stroke="black" points="431.75,-195.62 431.75,-231.12 531,-231.12 531,-195.62 431.75,-195.62"/>
<text xml:space="preserve" text-anchor="start" x="443.12" y="-216.62" font-family="Linux libertine" font-size="10.00">2 x (1, 256, 4, 4),</text>
<text xml:space="preserve" text-anchor="start" x="443.12" y="-203.88" font-family="Linux libertine" font-size="10.00">2 x (1, 256, 8, 8) </text>
</g>
<!-- 8&#45;&gt;9 -->
<g id="edge4" class="edge">
<title>8&#45;&gt;9</title>
<path fill="none" stroke="black" d="M430.12,-273.32C430.12,-273.19 430.12,-273.06 430.12,-272.93"/>
<polygon fill="black" stroke="black" points="433.63,-278.59 430.13,-268.59 426.63,-278.59 433.63,-278.59"/>
</g>
<!-- 10 -->
<g id="node8" class="node">
<title>10</title>
<polygon fill="#c1ffc1" stroke="black" points="531,-188.25 329.25,-188.25 329.25,-130 531,-130 531,-188.25"/>
<polygon fill="none" stroke="black" points="329.25,-130 329.25,-188.25 388,-188.25 388,-130 329.25,-130"/>
<text xml:space="preserve" text-anchor="start" x="334.25" y="-162.38" font-family="Linux libertine" font-size="10.00">Downsizing</text>
<text xml:space="preserve" text-anchor="start" x="342.12" y="-149.62" font-family="Linux libertine" font-size="10.00">depth:1</text>
<polygon fill="none" stroke="black" points="388,-152.75 388,-188.25 431.75,-188.25 431.75,-152.75 388,-152.75"/>
<text xml:space="preserve" text-anchor="start" x="397.5" y="-167.38" font-family="Linux libertine" font-size="10.00">input:</text>
<polygon fill="none" stroke="black" points="431.75,-152.75 431.75,-188.25 531,-188.25 531,-152.75 431.75,-152.75"/>
<text xml:space="preserve" text-anchor="start" x="451.38" y="-173.75" font-family="Linux libertine" font-size="10.00">(1, 256, 4, 4),</text>
<text xml:space="preserve" text-anchor="start" x="436.75" y="-161" font-family="Linux libertine" font-size="10.00">(1, 512), (1, 1, 128) </text>
<polygon fill="none" stroke="black" points="388,-130 388,-152.75 431.75,-152.75 431.75,-130 388,-130"/>
<text xml:space="preserve" text-anchor="start" x="393" y="-138.25" font-family="Linux libertine" font-size="10.00">output: </text>
<polygon fill="none" stroke="black" points="431.75,-130 431.75,-152.75 531,-152.75 531,-130 431.75,-130"/>
<text xml:space="preserve" text-anchor="start" x="443.12" y="-138.25" font-family="Linux libertine" font-size="10.00">3 x (1, 512, 4, 4) </text>
</g>
<!-- 9&#45;&gt;10 -->
<g id="edge5" class="edge">
<title>9&#45;&gt;10</title>
<path fill="none" stroke="black" d="M430.12,-195.29C430.12,-195.15 430.12,-195.02 430.12,-194.88"/>
<polygon fill="black" stroke="black" points="433.63,-200.17 430.13,-190.17 426.63,-200.17 433.63,-200.17"/>
</g>
<!-- 11 -->
<g id="node9" class="node">
<title>11</title>
<polygon fill="#c1ffc1" stroke="black" points="743,-188.25 545,-188.25 545,-130 743,-130 743,-188.25"/>
<polygon fill="none" stroke="black" points="545,-130 545,-188.25 600,-188.25 600,-130 545,-130"/>
<text xml:space="preserve" text-anchor="start" x="550" y="-162.38" font-family="Linux libertine" font-size="10.00">Bottleneck</text>
<text xml:space="preserve" text-anchor="start" x="556" y="-149.62" font-family="Linux libertine" font-size="10.00">depth:1</text>
<polygon fill="none" stroke="black" points="600,-152.75 600,-188.25 643.75,-188.25 643.75,-152.75 600,-152.75"/>
<text xml:space="preserve" text-anchor="start" x="609.5" y="-167.38" font-family="Linux libertine" font-size="10.00">input:</text>
<polygon fill="none" stroke="black" points="643.75,-152.75 643.75,-188.25 743,-188.25 743,-152.75 643.75,-152.75"/>
<text xml:space="preserve" text-anchor="start" x="663.38" y="-173.75" font-family="Linux libertine" font-size="10.00">(1, 512, 4, 4),</text>
<text xml:space="preserve" text-anchor="start" x="648.75" y="-161" font-family="Linux libertine" font-size="10.00">(1, 512), (1, 1, 128) </text>
<polygon fill="none" stroke="black" points="600,-130 600,-152.75 643.75,-152.75 643.75,-130 600,-130"/>
<text xml:space="preserve" text-anchor="start" x="605" y="-138.25" font-family="Linux libertine" font-size="10.00">output: </text>
<polygon fill="none" stroke="black" points="643.75,-130 643.75,-152.75 743,-152.75 743,-130 643.75,-130"/>
<text xml:space="preserve" text-anchor="start" x="663.38" y="-138.25" font-family="Linux libertine" font-size="10.00">(1, 512, 4, 4) </text>
</g>
<!-- 10&#45;&gt;11 -->
<g id="edge6" class="edge">
<title>10&#45;&gt;11</title>
<path fill="none" stroke="black" d="M531.48,-159.12C532.16,-159.12 532.85,-159.12 533.53,-159.12"/>
<polygon fill="black" stroke="black" points="533.13,-162.63 543.13,-159.13 533.13,-155.63 533.13,-162.63"/>
</g>
<!-- 12 -->
<g id="node10" class="node">
<title>12</title>
<polygon fill="#c1ffc1" stroke="black" points="995.5,-188.25 778.75,-188.25 778.75,-130 995.5,-130 995.5,-188.25"/>
<polygon fill="none" stroke="black" points="778.75,-130 778.75,-188.25 824.75,-188.25 824.75,-130 778.75,-130"/>
<text xml:space="preserve" text-anchor="start" x="783.75" y="-162.38" font-family="Linux libertine" font-size="10.00">Upsizing</text>
<text xml:space="preserve" text-anchor="start" x="785.25" y="-149.62" font-family="Linux libertine" font-size="10.00">depth:1</text>
<polygon fill="none" stroke="black" points="824.75,-152.75 824.75,-188.25 868.5,-188.25 868.5,-152.75 824.75,-152.75"/>
<text xml:space="preserve" text-anchor="start" x="834.25" y="-167.38" font-family="Linux libertine" font-size="10.00">input:</text>
<polygon fill="none" stroke="black" points="868.5,-152.75 868.5,-188.25 995.5,-188.25 995.5,-152.75 868.5,-152.75"/>
<text xml:space="preserve" text-anchor="start" x="873.5" y="-173.75" font-family="Linux libertine" font-size="10.00">3 x (1, 512, 4, 4), (1, 512),</text>
<text xml:space="preserve" text-anchor="start" x="876.12" y="-161" font-family="Linux libertine" font-size="10.00">(1, 256, 4, 4), (1, 1, 128) </text>
<polygon fill="none" stroke="black" points="824.75,-130 824.75,-152.75 868.5,-152.75 868.5,-130 824.75,-130"/>
<text xml:space="preserve" text-anchor="start" x="829.75" y="-138.25" font-family="Linux libertine" font-size="10.00">output: </text>
<polygon fill="none" stroke="black" points="868.5,-130 868.5,-152.75 995.5,-152.75 995.5,-130 868.5,-130"/>
<text xml:space="preserve" text-anchor="start" x="902" y="-138.25" font-family="Linux libertine" font-size="10.00">(1, 512, 8, 8) </text>
</g>
<!-- 11&#45;&gt;12 -->
<g id="edge9" class="edge">
<title>11&#45;&gt;12</title>
<path fill="none" stroke="black" d="M743.42,-159.12C751.3,-159.12 759.31,-159.12 767.31,-159.12"/>
<polygon fill="black" stroke="black" points="767.08,-162.63 777.08,-159.13 767.08,-155.63 767.08,-162.63"/>
</g>
<!-- 13 -->
<g id="node11" class="node">
<title>13</title>
<polygon fill="#c1ffc1" stroke="black" points="1017.25,-123.25 757,-123.25 757,-65 1017.25,-65 1017.25,-123.25"/>
<polygon fill="none" stroke="black" points="757,-65 757,-123.25 803,-123.25 803,-65 757,-65"/>
<text xml:space="preserve" text-anchor="start" x="762" y="-97.38" font-family="Linux libertine" font-size="10.00">Upsizing</text>
<text xml:space="preserve" text-anchor="start" x="763.5" y="-84.62" font-family="Linux libertine" font-size="10.00">depth:1</text>
<polygon fill="none" stroke="black" points="803,-87.75 803,-123.25 846.75,-123.25 846.75,-87.75 803,-87.75"/>
<text xml:space="preserve" text-anchor="start" x="812.5" y="-102.38" font-family="Linux libertine" font-size="10.00">input:</text>
<polygon fill="none" stroke="black" points="846.75,-87.75 846.75,-123.25 1017.25,-123.25 1017.25,-87.75 846.75,-87.75"/>
<text xml:space="preserve" text-anchor="start" x="851.75" y="-108.75" font-family="Linux libertine" font-size="10.00">(1, 512, 8, 8), (1, 512), (1, 128, 8, 8)</text>
<text xml:space="preserve" text-anchor="start" x="867.88" y="-96" font-family="Linux libertine" font-size="10.00">2 x (1, 256, 8, 8), (1, 1, 128) </text>
<polygon fill="none" stroke="black" points="803,-65 803,-87.75 846.75,-87.75 846.75,-65 803,-65"/>
<text xml:space="preserve" text-anchor="start" x="808" y="-73.25" font-family="Linux libertine" font-size="10.00">output: </text>
<polygon fill="none" stroke="black" points="846.75,-65 846.75,-87.75 1017.25,-87.75 1017.25,-65 846.75,-65"/>
<text xml:space="preserve" text-anchor="start" x="896.75" y="-73.25" font-family="Linux libertine" font-size="10.00">(1, 256, 16, 16) </text>
</g>
<!-- 12&#45;&gt;13 -->
<g id="edge7" class="edge">
<title>12&#45;&gt;13</title>
<path fill="none" stroke="black" d="M887.12,-129.69C887.12,-129.56 887.12,-129.43 887.12,-129.31"/>
<polygon fill="black" stroke="black" points="890.63,-135.09 887.13,-125.09 883.63,-135.09 890.63,-135.09"/>
</g>
<!-- 14 -->
<g id="node12" class="node">
<title>14</title>
<polygon fill="#c1ffc1" stroke="black" points="1006.38,-58.25 767.88,-58.25 767.88,0 1006.38,0 1006.38,-58.25"/>
<polygon fill="none" stroke="black" points="767.88,0 767.88,-58.25 813.88,-58.25 813.88,0 767.88,0"/>
<text xml:space="preserve" text-anchor="start" x="772.88" y="-32.38" font-family="Linux libertine" font-size="10.00">Upsizing</text>
<text xml:space="preserve" text-anchor="start" x="774.38" y="-19.62" font-family="Linux libertine" font-size="10.00">depth:1</text>
<polygon fill="none" stroke="black" points="813.88,-22.75 813.88,-58.25 857.62,-58.25 857.62,-22.75 813.88,-22.75"/>
<text xml:space="preserve" text-anchor="start" x="823.38" y="-37.38" font-family="Linux libertine" font-size="10.00">input:</text>
<polygon fill="none" stroke="black" points="857.62,-22.75 857.62,-58.25 1006.38,-58.25 1006.38,-22.75 857.62,-22.75"/>
<text xml:space="preserve" text-anchor="start" x="876.5" y="-43.75" font-family="Linux libertine" font-size="10.00">(1, 256, 16, 16), (1, 512),</text>
<text xml:space="preserve" text-anchor="start" x="862.62" y="-31" font-family="Linux libertine" font-size="10.00">3 x (1, 128, 16, 16), (1, 1, 128) </text>
<polygon fill="none" stroke="black" points="813.88,0 813.88,-22.75 857.62,-22.75 857.62,0 813.88,0"/>
<text xml:space="preserve" text-anchor="start" x="818.88" y="-8.25" font-family="Linux libertine" font-size="10.00">output: </text>
<polygon fill="none" stroke="black" points="857.62,0 857.62,-22.75 1006.38,-22.75 1006.38,0 857.62,0"/>
<text xml:space="preserve" text-anchor="start" x="896.75" y="-8.25" font-family="Linux libertine" font-size="10.00">(1, 128, 16, 16) </text>
</g>
<!-- 13&#45;&gt;14 -->
<g id="edge8" class="edge">
<title>13&#45;&gt;14</title>
<path fill="none" stroke="black" d="M887.12,-64.69C887.12,-64.56 887.12,-64.43 887.12,-64.31"/>
<polygon fill="black" stroke="black" points="890.63,-70.09 887.13,-60.09 883.63,-70.09 890.63,-70.09"/>
</g>
<!-- 17 -->
<g id="node13" class="node">
<title>17</title>
<polygon fill="#c1ffc1" stroke="black" points="1198.5,-51.88 1031.25,-51.88 1031.25,-6.38 1198.5,-6.38 1198.5,-51.88"/>
<polygon fill="none" stroke="black" points="1031.25,-6.38 1031.25,-51.88 1074.25,-51.88 1074.25,-6.38 1031.25,-6.38"/>
<text xml:space="preserve" text-anchor="start" x="1036.62" y="-32.38" font-family="Linux libertine" font-size="10.00">Conv2d</text>
<text xml:space="preserve" text-anchor="start" x="1036.25" y="-19.62" font-family="Linux libertine" font-size="10.00">depth:1</text>
<polygon fill="none" stroke="black" points="1074.25,-29.12 1074.25,-51.88 1118,-51.88 1118,-29.12 1074.25,-29.12"/>
<text xml:space="preserve" text-anchor="start" x="1083.75" y="-37.38" font-family="Linux libertine" font-size="10.00">input:</text>
<polygon fill="none" stroke="black" points="1118,-29.12 1118,-51.88 1198.5,-51.88 1198.5,-29.12 1118,-29.12"/>
<text xml:space="preserve" text-anchor="start" x="1123" y="-37.38" font-family="Linux libertine" font-size="10.00">(1, 128, 16, 16) </text>
<polygon fill="none" stroke="black" points="1074.25,-6.38 1074.25,-29.12 1118,-29.12 1118,-6.38 1074.25,-6.38"/>
<text xml:space="preserve" text-anchor="start" x="1079.25" y="-14.62" font-family="Linux libertine" font-size="10.00">output: </text>
<polygon fill="none" stroke="black" points="1118,-6.38 1118,-29.12 1198.5,-29.12 1198.5,-6.38 1118,-6.38"/>
<text xml:space="preserve" text-anchor="start" x="1125.62" y="-14.62" font-family="Linux libertine" font-size="10.00">(1, 13, 16, 16) </text>
</g>
<!-- 14&#45;&gt;17 -->
<g id="edge10" class="edge">
<title>14&#45;&gt;17</title>
<path fill="none" stroke="black" d="M1006.62,-29.12C1010.97,-29.12 1015.32,-29.12 1019.62,-29.12"/>
<polygon fill="black" stroke="black" points="1019.4,-32.63 1029.4,-29.13 1019.4,-25.63 1019.4,-32.63"/>
</g>
<!-- 18 -->
<g id="node14" class="node">
<title>18</title>
<polygon fill="lightyellow" stroke="black" points="1352.5,-47.12 1212.5,-47.12 1212.5,-11.12 1352.5,-11.12 1352.5,-47.12"/>
<polygon fill="none" stroke="black" points="1212.5,-11.38 1212.5,-46.88 1280.25,-46.88 1280.25,-11.38 1212.5,-11.38"/>
<text xml:space="preserve" text-anchor="start" x="1217.5" y="-32.38" font-family="Linux libertine" font-size="10.00">output&#45;tensor</text>
<text xml:space="preserve" text-anchor="start" x="1229.88" y="-19.62" font-family="Linux libertine" font-size="10.00">depth:0</text>
<polygon fill="none" stroke="black" points="1280.25,-11.38 1280.25,-46.88 1352.5,-46.88 1352.5,-11.38 1280.25,-11.38"/>
<text xml:space="preserve" text-anchor="start" x="1285.25" y="-26" font-family="Linux libertine" font-size="10.00">(1, 13, 16, 16)</text>
</g>
<!-- 17&#45;&gt;18 -->
<g id="edge11" class="edge">
<title>17&#45;&gt;18</title>
<path fill="none" stroke="black" d="M1198.69,-29.12C1199.4,-29.12 1200.1,-29.12 1200.81,-29.12"/>
<polygon fill="black" stroke="black" points="1200.71,-32.63 1210.71,-29.13 1200.71,-25.63 1200.71,-32.63"/>
</g>
</g>
</svg>
